<svg viewBox="0 0 96 96" xmlns="http://www.w3.org/2000/svg" xmlns:xlink="http://www.w3.org/1999/xlink" id="Icons_BoardRoom" overflow="hidden"><style>
.MsftOfcResponsive_Fill_3bb17b {
 fill:#3BB17B; 
}
</style>
<path d="M21 32.19C23.7614 32.19 26 29.9514 26 27.19 26 24.4286 23.7614 22.19 21 22.19 18.2386 22.19 16 24.4286 16 27.19 16 29.9514 18.2386 32.19 21 32.19Z" class="MsftOfcResponsive_Fill_3bb17b" fill="#4472C4"/><path d="M27.52 43.52C27.951 43.8309 28.4686 43.9988 29 44L36 44C37.3807 44 38.5 42.8807 38.5 41.5 38.5 40.1193 37.3807 39 36 39L29.82 39 25.06 35.51C24.0205 34.0817 22.2962 33.3187 20.54 33.51 17.9526 33.8317 16.0245 36.0531 16.07 38.66L16.07 53C16.07 55.7614 18.3086 58 21.07 58L26 58 26 58 32 58 32 70.72C32 72.1007 33.1193 73.22 34.5 73.22 35.8807 73.22 37 72.1007 37 70.72L37 55.47C37 54.0893 35.8807 52.97 34.5 52.97L26 52.97 26 42.39Z" class="MsftOfcResponsive_Fill_3bb17b" fill="#4472C4"/><path d="M75 32.19C77.7614 32.19 80 29.9514 80 27.19 80 24.4286 77.7614 22.19 75 22.19 72.2386 22.19 70 24.4286 70 27.19 70 29.9514 72.2386 32.19 75 32.19Z" class="MsftOfcResponsive_Fill_3bb17b" fill="#4472C4"/><path d="M75.46 33.46C73.7038 33.2687 71.9795 34.0317 70.94 35.46L66.18 39 60 39C58.6193 39 57.5 40.1193 57.5 41.5 57.5 42.8807 58.6193 44 60 44L67 44C67.5314 43.9988 68.049 43.8309 68.48 43.52L70 42.39 70 53 61.53 53C60.1493 53 59.03 54.1193 59.03 55.5L59.03 70.72C59.03 72.1007 60.1493 73.22 61.53 73.22 62.9107 73.22 64.03 72.1007 64.03 70.72L64.03 58 70.03 58 70.03 58 74.91 58C77.6714 58 79.91 55.7614 79.91 53L79.91 38.61C79.9567 36.0098 78.0394 33.791 75.46 33.46Z" class="MsftOfcResponsive_Fill_3bb17b" fill="#4472C4"/><path d="M65 46 31 46C29.8954 46 29 46.8954 29 48 29 49.1046 29.8954 50 31 50L46 50 46 70 40 70 40 74 56 74 56 70 50 70 50 50 65 50C66.1046 50 67 49.1046 67 48 67 46.8954 66.1046 46 65 46Z" class="MsftOfcResponsive_Fill_3bb17b" fill="#4472C4"/><path d="M28 60 14 60 14 40C14 38.8954 13.1046 38 12 38 10.8954 38 10 38.8954 10 40L10 62C10 63.1046 10.8954 64 12 64L18 64 18 70 14 70 14 74 26 74 26 70 22 70 22 64 28 64C29.1046 64 30 63.1046 30 62 30 60.8954 29.1046 60 28 60Z" class="MsftOfcResponsive_Fill_3bb17b" fill="#4472C4"/><path d="M84 38.5C82.8954 38.5 82 39.3954 82 40.5L82 60 68 60C66.8954 60 66 60.8954 66 62 66 63.1046 66.8954 64 68 64L74 64 74 70 70 70 70 74 82 74 82 70 78 70 78 64 84 64C85.1046 64 86 63.1046 86 62L86 40.5C86 39.3954 85.1046 38.5 84 38.5Z" class="MsftOfcResponsive_Fill_3bb17b" fill="#4472C4"/></svg>